<svg id="a" shape-rendering="geometricPrecision" aria-labelledby="b c" role="img" version="1.1" viewBox="0 0 733 733" xmlns="http://www.w3.org/2000/svg">
<title id="b">Logo vetorizado</title>
<desc id="c">Cabeça de javali branca sobre fundo vermelho escuro com detalhes vermelhos.</desc>
<rect id="d" width="733" height="733" fill="#850305"/>
<path id="e" d="m3 135.23c-3.4886-13.879-0.5084-32.242-1.5-47.841 0.35234-28.508-0.69242-57.277 0.5-85.629 81.476-0.27011 163.19-0.75763 244.59 0.24-41.429 16.326-82.586 34.814-122.47 55.647-41.871 23.774-83.196 48.518-121.12 77.583zm727 595.01c-121.3 0.55982-242.67 0.18022-364 0.19 4.0426-6.1488 16.52-11.9 24-17.76 60.088-39.31 126.85-71.343 195-92.35 22.889-6.6081 46.03-14.645 69.59-17.32-45.764 25.659-89.079 55.059-128.97 89 6.678-0.92436 20.403-9.9474 29.594-13.872 54.543-26.508 111.51-46.034 169.79-58.808 11.63-0.8674 2.6961 21.965 5.5 30.705-0.34781 26.7 0.68625 53.673-0.5 80.215z" fill="#e33738" fill-rule="evenodd"/>
<path id="f" d="m241 587.35c-43.229-19.184-80.595-53.615-106.36-93.35-18.001-28.164-29.294-59.816-35.56-92-7.2933 2.8296-18.14 13.824-14.572-2.293-1.7434-41.574 7.4373-80.894 24.842-117.71-3.9745-4.8905-24.903 6.7865-13.392-5.3788 33.373-39.187 72.914-72.447 117.49-96.621-1.7683-12.84-12.206-24.14-19.45-35.08 39.072-1.9735 77.269 2.3172 114 11.73 50.264 12.561 99.18 36.087 141 67.71 11.802 8.8771 26.177 17.709 28.672 33.444 12.969 33.318 40.678 62.086 74.328 74.546 11.776-18.312 17.988-39.571 23-60.31 6.9638 22.144 8.7323 45.577 9 69.26 21.787 3.0322 43.713-0.40811 64-6.6-4.2218 35.185-17.315 70.283-37 100.61-35.59-0.52344-70.152 2.6885-104.07 9.1642-48.749 9.3331-96.401 26.132-140.93 49.886-46.249 24.287-87.669 55.961-125 92.99zm128.3-264.35c2.3544-9.4634-12.646-9.6465-11.65-20-4.5657-6.725 4.4462-23.387-1.65-23.36-11.726 7.3587 9.2894-14.98-7-11.29-13.496 0.33892 0.85194-13.98 6.8012-16.017 17.183-0.87763 3.184-8.7398-5.8012-9.9833-7.6422-3.6288 14.814-3.4025 20.063-0.79371 14.264 4.5195 24.029 17.722 33.937 28.594 11.695 1.4406 15.981-8.8372 4.5848-14.059-25.077-21.139-57.12-35.019-89.585-36.171 11.143 13.908 16.959 32.731 11.5 50.153-2.9681 24.101 14.755 49.836 38.8 52.927zm122 3c-11.122-13.298-26.049-24.953-40.38-35-1.9164 20.873 19.721 39.845 40.38 35zm2.2 107c18.99-3.9228 38.468-5.8328 57.8-8 16.284-36.465 25.863-75.099 22.7-115.96-17.31 46.428-45.356 88.584-82.49 122.96-2.0309 1.4407 1.4312 1.919 1.99 1z" fill="#fff" fill-rule="evenodd"/>
</svg>
